<mxfile host="app.diagrams.net" agent="Mozilla/5.0 (Windows NT 10.0; Win64; x64; rv:140.0) Gecko/20100101 Firefox/140.0" scale="1" border="0" version="28.0.6">
  <diagram name="Page-1" id="3nDOYRrsywa53dclinLr">
    <mxGraphModel dx="1928" dy="978" grid="1" gridSize="10" guides="1" tooltips="1" connect="1" arrows="1" fold="1" page="1" pageScale="1" pageWidth="850" pageHeight="1100" math="0" shadow="0">
      <root>
        <mxCell id="0" />
        <mxCell id="1" parent="0" />
        <mxCell id="QAlAPhOlw3hryVekH8fl-295" value="" style="rounded=0;whiteSpace=wrap;html=1;" parent="1" vertex="1">
          <mxGeometry x="20" y="150" width="720" height="380" as="geometry" />
        </mxCell>
        <mxCell id="QAlAPhOlw3hryVekH8fl-296" value="" style="rounded=0;whiteSpace=wrap;html=1;" parent="1" vertex="1">
          <mxGeometry x="590" y="360" width="130" height="150" as="geometry" />
        </mxCell>
        <mxCell id="QAlAPhOlw3hryVekH8fl-182" value="" style="whiteSpace=wrap;html=1;dashed=1;fillColor=#f5f5f5;fontColor=#333333;strokeColor=#666666;" parent="1" vertex="1">
          <mxGeometry x="130" y="335" width="70" height="70" as="geometry" />
        </mxCell>
        <mxCell id="QAlAPhOlw3hryVekH8fl-131" value="Vertebrate 1" style="text;html=1;align=center;verticalAlign=middle;whiteSpace=wrap;rounded=0;" parent="1" vertex="1">
          <mxGeometry x="90" y="160" width="70" height="30" as="geometry" />
        </mxCell>
        <mxCell id="QAlAPhOlw3hryVekH8fl-177" value="" style="group;rotation=-180;" parent="1" vertex="1" connectable="0">
          <mxGeometry x="90" y="180" width="70" height="80" as="geometry" />
        </mxCell>
        <mxCell id="QAlAPhOlw3hryVekH8fl-3" value="" style="rounded=0;whiteSpace=wrap;html=1;dashed=1;dashPattern=12 12;fillColor=#f5f5f5;fontColor=#333333;strokeColor=#666666;rotation=-270;" parent="QAlAPhOlw3hryVekH8fl-177" vertex="1">
          <mxGeometry width="70" height="80" as="geometry" />
        </mxCell>
        <mxCell id="QAlAPhOlw3hryVekH8fl-106" value="" style="ellipse;whiteSpace=wrap;html=1;fillColor=#054FB9;strokeColor=#054FB9;rotation=-270;" parent="QAlAPhOlw3hryVekH8fl-177" vertex="1">
          <mxGeometry x="40" y="15" width="10" height="10" as="geometry" />
        </mxCell>
        <mxCell id="QAlAPhOlw3hryVekH8fl-114" value="" style="ellipse;whiteSpace=wrap;html=1;fillColor=#054FB9;strokeColor=#054FB9;rotation=-270;" parent="QAlAPhOlw3hryVekH8fl-177" vertex="1">
          <mxGeometry x="20" y="15" width="10" height="10" as="geometry" />
        </mxCell>
        <mxCell id="QAlAPhOlw3hryVekH8fl-115" value="" style="ellipse;whiteSpace=wrap;html=1;fillColor=#8BABF1;strokeColor=#8BABF1;rotation=-270;" parent="QAlAPhOlw3hryVekH8fl-177" vertex="1">
          <mxGeometry x="50" y="55" width="10" height="10" as="geometry" />
        </mxCell>
        <mxCell id="QAlAPhOlw3hryVekH8fl-116" value="" style="ellipse;whiteSpace=wrap;html=1;fillColor=#8BABF1;strokeColor=#8BABF1;rotation=-270;" parent="QAlAPhOlw3hryVekH8fl-177" vertex="1">
          <mxGeometry x="30" y="55" width="10" height="10" as="geometry" />
        </mxCell>
        <mxCell id="QAlAPhOlw3hryVekH8fl-117" value="" style="ellipse;whiteSpace=wrap;html=1;fillColor=#8BABF1;strokeColor=#8BABF1;rotation=-270;" parent="QAlAPhOlw3hryVekH8fl-177" vertex="1">
          <mxGeometry x="10" y="55" width="10" height="10" as="geometry" />
        </mxCell>
        <mxCell id="QAlAPhOlw3hryVekH8fl-178" value="" style="group;rotation=90;fontStyle=0" parent="1" vertex="1" connectable="0">
          <mxGeometry x="60" y="345" width="60" height="65" as="geometry" />
        </mxCell>
        <mxCell id="QAlAPhOlw3hryVekH8fl-180" value="" style="whiteSpace=wrap;html=1;dashed=1;fillColor=#f5f5f5;fontColor=#333333;strokeColor=#666666;" parent="QAlAPhOlw3hryVekH8fl-178" vertex="1">
          <mxGeometry x="-10" y="-10" width="70" height="70" as="geometry" />
        </mxCell>
        <mxCell id="QAlAPhOlw3hryVekH8fl-138" value="" style="ellipse;whiteSpace=wrap;html=1;fillColor=#054FB9;strokeColor=#054FB9;rotation=90;" parent="QAlAPhOlw3hryVekH8fl-178" vertex="1">
          <mxGeometry x="10" width="10" height="10" as="geometry" />
        </mxCell>
        <mxCell id="QAlAPhOlw3hryVekH8fl-140" value="" style="ellipse;whiteSpace=wrap;html=1;fillColor=#8BABF1;strokeColor=#8BABF1;rotation=90;" parent="QAlAPhOlw3hryVekH8fl-178" vertex="1">
          <mxGeometry x="40" y="40" width="10" height="10" as="geometry" />
        </mxCell>
        <mxCell id="QAlAPhOlw3hryVekH8fl-141" value="" style="ellipse;whiteSpace=wrap;html=1;fillColor=#8BABF1;strokeColor=#8BABF1;rotation=90;" parent="QAlAPhOlw3hryVekH8fl-178" vertex="1">
          <mxGeometry x="20" y="40" width="10" height="10" as="geometry" />
        </mxCell>
        <mxCell id="QAlAPhOlw3hryVekH8fl-142" value="" style="ellipse;whiteSpace=wrap;html=1;fillColor=#8BABF1;strokeColor=#8BABF1;rotation=90;" parent="QAlAPhOlw3hryVekH8fl-178" vertex="1">
          <mxGeometry y="40" width="10" height="10" as="geometry" />
        </mxCell>
        <mxCell id="QAlAPhOlw3hryVekH8fl-148" value="" style="endArrow=classic;html=1;rounded=0;exitX=1;exitY=0.5;exitDx=0;exitDy=0;entryX=0;entryY=0.5;entryDx=0;entryDy=0;" parent="QAlAPhOlw3hryVekH8fl-178" source="QAlAPhOlw3hryVekH8fl-138" target="QAlAPhOlw3hryVekH8fl-140" edge="1">
          <mxGeometry width="50" height="50" relative="1" as="geometry">
            <mxPoint x="-40" y="50" as="sourcePoint" />
            <mxPoint x="10" y="100" as="targetPoint" />
          </mxGeometry>
        </mxCell>
        <mxCell id="QAlAPhOlw3hryVekH8fl-150" value="" style="endArrow=classic;html=1;rounded=0;exitX=1;exitY=0.5;exitDx=0;exitDy=0;entryX=0;entryY=0.5;entryDx=0;entryDy=0;" parent="QAlAPhOlw3hryVekH8fl-178" source="QAlAPhOlw3hryVekH8fl-138" target="QAlAPhOlw3hryVekH8fl-142" edge="1">
          <mxGeometry width="50" height="50" relative="1" as="geometry">
            <mxPoint x="-40" y="50" as="sourcePoint" />
            <mxPoint x="10" y="100" as="targetPoint" />
          </mxGeometry>
        </mxCell>
        <mxCell id="QAlAPhOlw3hryVekH8fl-175" value="" style="endArrow=classic;html=1;rounded=0;exitX=1;exitY=0.5;exitDx=0;exitDy=0;entryX=0;entryY=0.5;entryDx=0;entryDy=0;" parent="QAlAPhOlw3hryVekH8fl-178" source="QAlAPhOlw3hryVekH8fl-138" target="QAlAPhOlw3hryVekH8fl-141" edge="1">
          <mxGeometry width="50" height="50" relative="1" as="geometry">
            <mxPoint x="35" y="10" as="sourcePoint" />
            <mxPoint x="25" y="40" as="targetPoint" />
          </mxGeometry>
        </mxCell>
        <mxCell id="QAlAPhOlw3hryVekH8fl-179" value="" style="group;rotation=90;" parent="1" vertex="1" connectable="0">
          <mxGeometry x="140" y="345" width="70" height="60" as="geometry" />
        </mxCell>
        <mxCell id="QAlAPhOlw3hryVekH8fl-144" value="" style="ellipse;whiteSpace=wrap;html=1;fillColor=#054FB9;strokeColor=#054FB9;rotation=90;" parent="QAlAPhOlw3hryVekH8fl-179" vertex="1">
          <mxGeometry x="30" width="10" height="10" as="geometry" />
        </mxCell>
        <mxCell id="QAlAPhOlw3hryVekH8fl-145" value="" style="ellipse;whiteSpace=wrap;html=1;fillColor=#8BABF1;strokeColor=#8BABF1;rotation=90;" parent="QAlAPhOlw3hryVekH8fl-179" vertex="1">
          <mxGeometry x="40" y="40" width="10" height="10" as="geometry" />
        </mxCell>
        <mxCell id="QAlAPhOlw3hryVekH8fl-146" value="" style="ellipse;whiteSpace=wrap;html=1;fillColor=#8BABF1;strokeColor=#8BABF1;rotation=90;" parent="QAlAPhOlw3hryVekH8fl-179" vertex="1">
          <mxGeometry x="20" y="40" width="10" height="10" as="geometry" />
        </mxCell>
        <mxCell id="QAlAPhOlw3hryVekH8fl-147" value="" style="ellipse;whiteSpace=wrap;html=1;fillColor=#8BABF1;strokeColor=#8BABF1;rotation=90;" parent="QAlAPhOlw3hryVekH8fl-179" vertex="1">
          <mxGeometry y="40" width="10" height="10" as="geometry" />
        </mxCell>
        <mxCell id="QAlAPhOlw3hryVekH8fl-151" value="" style="endArrow=classic;html=1;rounded=0;exitX=1;exitY=0.5;exitDx=0;exitDy=0;entryX=0;entryY=0.5;entryDx=0;entryDy=0;" parent="QAlAPhOlw3hryVekH8fl-179" source="QAlAPhOlw3hryVekH8fl-144" target="QAlAPhOlw3hryVekH8fl-145" edge="1">
          <mxGeometry width="50" height="50" relative="1" as="geometry">
            <mxPoint x="-40" y="-30" as="sourcePoint" />
            <mxPoint x="10" y="20" as="targetPoint" />
          </mxGeometry>
        </mxCell>
        <mxCell id="QAlAPhOlw3hryVekH8fl-152" value="" style="endArrow=classic;html=1;rounded=0;exitX=1;exitY=0.5;exitDx=0;exitDy=0;entryX=0;entryY=0.5;entryDx=0;entryDy=0;" parent="QAlAPhOlw3hryVekH8fl-179" source="QAlAPhOlw3hryVekH8fl-144" target="QAlAPhOlw3hryVekH8fl-146" edge="1">
          <mxGeometry width="50" height="50" relative="1" as="geometry">
            <mxPoint x="-40" y="-30" as="sourcePoint" />
            <mxPoint x="10" y="20" as="targetPoint" />
          </mxGeometry>
        </mxCell>
        <mxCell id="QAlAPhOlw3hryVekH8fl-183" value="" style="endArrow=classic;html=1;rounded=0;exitX=1;exitY=0.5;exitDx=0;exitDy=0;entryX=0;entryY=0.5;entryDx=0;entryDy=0;" parent="QAlAPhOlw3hryVekH8fl-179" source="QAlAPhOlw3hryVekH8fl-144" target="QAlAPhOlw3hryVekH8fl-147" edge="1">
          <mxGeometry width="50" height="50" relative="1" as="geometry">
            <mxPoint x="285" y="355" as="sourcePoint" />
            <mxPoint x="255" y="385" as="targetPoint" />
          </mxGeometry>
        </mxCell>
        <mxCell id="QAlAPhOlw3hryVekH8fl-181" value="Network 1" style="text;html=1;align=center;verticalAlign=middle;whiteSpace=wrap;rounded=0;" parent="1" vertex="1">
          <mxGeometry x="50" y="310" width="70" height="30" as="geometry" />
        </mxCell>
        <mxCell id="QAlAPhOlw3hryVekH8fl-184" value="Network 2" style="text;html=1;align=center;verticalAlign=middle;whiteSpace=wrap;rounded=0;" parent="1" vertex="1">
          <mxGeometry x="130" y="310" width="70" height="30" as="geometry" />
        </mxCell>
        <mxCell id="QAlAPhOlw3hryVekH8fl-214" value="" style="whiteSpace=wrap;html=1;dashed=1;fillColor=#f5f5f5;fontColor=#333333;strokeColor=#666666;" parent="1" vertex="1">
          <mxGeometry x="490" y="335" width="70" height="70" as="geometry" />
        </mxCell>
        <mxCell id="QAlAPhOlw3hryVekH8fl-215" value="Vertebrate 3" style="text;html=1;align=center;verticalAlign=middle;whiteSpace=wrap;rounded=0;" parent="1" vertex="1">
          <mxGeometry x="450" y="160" width="70" height="30" as="geometry" />
        </mxCell>
        <mxCell id="QAlAPhOlw3hryVekH8fl-217" value="" style="group;rotation=-180;" parent="1" vertex="1" connectable="0">
          <mxGeometry x="450" y="180" width="70" height="80" as="geometry" />
        </mxCell>
        <mxCell id="QAlAPhOlw3hryVekH8fl-218" value="" style="rounded=0;whiteSpace=wrap;html=1;dashed=1;dashPattern=12 12;fillColor=#f5f5f5;fontColor=#333333;strokeColor=#666666;rotation=-270;" parent="QAlAPhOlw3hryVekH8fl-217" vertex="1">
          <mxGeometry width="70" height="80" as="geometry" />
        </mxCell>
        <mxCell id="QAlAPhOlw3hryVekH8fl-219" value="" style="ellipse;whiteSpace=wrap;html=1;fillColor=#054FB9;strokeColor=#054FB9;rotation=-270;" parent="QAlAPhOlw3hryVekH8fl-217" vertex="1">
          <mxGeometry x="40" y="15" width="10" height="10" as="geometry" />
        </mxCell>
        <mxCell id="QAlAPhOlw3hryVekH8fl-220" value="" style="ellipse;whiteSpace=wrap;html=1;fillColor=#054FB9;strokeColor=#054FB9;rotation=-270;" parent="QAlAPhOlw3hryVekH8fl-217" vertex="1">
          <mxGeometry x="20" y="15" width="10" height="10" as="geometry" />
        </mxCell>
        <mxCell id="QAlAPhOlw3hryVekH8fl-224" value="" style="group;rotation=90;fontStyle=0;dashed=1;" parent="1" vertex="1" connectable="0">
          <mxGeometry x="420" y="345" width="60" height="65" as="geometry" />
        </mxCell>
        <mxCell id="QAlAPhOlw3hryVekH8fl-225" value="" style="whiteSpace=wrap;html=1;dashed=1;fillColor=#f5f5f5;fontColor=#333333;strokeColor=#666666;" parent="QAlAPhOlw3hryVekH8fl-224" vertex="1">
          <mxGeometry x="-10" y="-10" width="70" height="70" as="geometry" />
        </mxCell>
        <mxCell id="QAlAPhOlw3hryVekH8fl-226" value="" style="ellipse;whiteSpace=wrap;html=1;fillColor=#054FB9;strokeColor=#054FB9;rotation=90;" parent="QAlAPhOlw3hryVekH8fl-224" vertex="1">
          <mxGeometry x="10" width="10" height="10" as="geometry" />
        </mxCell>
        <mxCell id="QAlAPhOlw3hryVekH8fl-241" value="Network 4" style="text;html=1;align=center;verticalAlign=middle;whiteSpace=wrap;rounded=0;" parent="1" vertex="1">
          <mxGeometry x="410" y="310" width="70" height="30" as="geometry" />
        </mxCell>
        <mxCell id="QAlAPhOlw3hryVekH8fl-242" value="Network 5" style="text;html=1;align=center;verticalAlign=middle;whiteSpace=wrap;rounded=0;" parent="1" vertex="1">
          <mxGeometry x="490" y="310" width="70" height="30" as="geometry" />
        </mxCell>
        <mxCell id="QAlAPhOlw3hryVekH8fl-243" value="Vertebrate 2" style="text;html=1;align=center;verticalAlign=middle;whiteSpace=wrap;rounded=0;" parent="1" vertex="1">
          <mxGeometry x="270" y="160" width="70" height="30" as="geometry" />
        </mxCell>
        <mxCell id="QAlAPhOlw3hryVekH8fl-244" value="" style="group;rotation=-180;" parent="1" vertex="1" connectable="0">
          <mxGeometry x="270" y="180" width="70" height="80" as="geometry" />
        </mxCell>
        <mxCell id="QAlAPhOlw3hryVekH8fl-245" value="" style="rounded=0;whiteSpace=wrap;html=1;dashed=1;dashPattern=12 12;fillColor=#f5f5f5;fontColor=#333333;strokeColor=#666666;rotation=-270;" parent="QAlAPhOlw3hryVekH8fl-244" vertex="1">
          <mxGeometry width="70" height="80" as="geometry" />
        </mxCell>
        <mxCell id="QAlAPhOlw3hryVekH8fl-249" value="" style="ellipse;whiteSpace=wrap;html=1;fillColor=#8BABF1;strokeColor=#8BABF1;rotation=-270;" parent="QAlAPhOlw3hryVekH8fl-244" vertex="1">
          <mxGeometry x="30" y="55" width="10" height="10" as="geometry" />
        </mxCell>
        <mxCell id="QAlAPhOlw3hryVekH8fl-251" value="" style="ellipse;whiteSpace=wrap;html=1;fillColor=#054FB9;strokeColor=#054FB9;rotation=-270;" parent="QAlAPhOlw3hryVekH8fl-244" vertex="1">
          <mxGeometry x="30" y="15" width="10" height="10" as="geometry" />
        </mxCell>
        <mxCell id="QAlAPhOlw3hryVekH8fl-253" value="" style="whiteSpace=wrap;html=1;dashed=1;fillColor=#f5f5f5;fontColor=#333333;strokeColor=#666666;" parent="1" vertex="1">
          <mxGeometry x="270" y="335" width="70" height="70" as="geometry" />
        </mxCell>
        <mxCell id="QAlAPhOlw3hryVekH8fl-254" value="" style="group;rotation=90;" parent="1" vertex="1" connectable="0">
          <mxGeometry x="280" y="345" width="70" height="60" as="geometry" />
        </mxCell>
        <mxCell id="QAlAPhOlw3hryVekH8fl-255" value="" style="ellipse;whiteSpace=wrap;html=1;fillColor=#054FB9;strokeColor=#054FB9;rotation=90;" parent="QAlAPhOlw3hryVekH8fl-254" vertex="1">
          <mxGeometry x="20" width="10" height="10" as="geometry" />
        </mxCell>
        <mxCell id="QAlAPhOlw3hryVekH8fl-257" value="" style="ellipse;whiteSpace=wrap;html=1;fillColor=#8BABF1;strokeColor=#8BABF1;rotation=90;" parent="QAlAPhOlw3hryVekH8fl-254" vertex="1">
          <mxGeometry x="20" y="40" width="10" height="10" as="geometry" />
        </mxCell>
        <mxCell id="QAlAPhOlw3hryVekH8fl-260" value="" style="endArrow=classic;html=1;rounded=0;exitX=1;exitY=0.5;exitDx=0;exitDy=0;entryX=0;entryY=0.5;entryDx=0;entryDy=0;" parent="QAlAPhOlw3hryVekH8fl-254" source="QAlAPhOlw3hryVekH8fl-255" target="QAlAPhOlw3hryVekH8fl-257" edge="1">
          <mxGeometry width="50" height="50" relative="1" as="geometry">
            <mxPoint x="-40" y="-30" as="sourcePoint" />
            <mxPoint x="10" y="20" as="targetPoint" />
          </mxGeometry>
        </mxCell>
        <mxCell id="QAlAPhOlw3hryVekH8fl-262" value="Network 2" style="text;html=1;align=center;verticalAlign=middle;whiteSpace=wrap;rounded=0;" parent="1" vertex="1">
          <mxGeometry x="270" y="310" width="70" height="30" as="geometry" />
        </mxCell>
        <mxCell id="QAlAPhOlw3hryVekH8fl-265" value="&lt;font style=&quot;font-size: 20px;&quot;&gt;X = {&amp;nbsp; 3,&amp;nbsp; 3,&amp;nbsp; 1,&amp;nbsp; 0,&amp;nbsp; 0, ... }&amp;nbsp; &amp;nbsp;&lt;/font&gt;" style="text;html=1;align=center;verticalAlign=middle;whiteSpace=wrap;rounded=0;" parent="1" vertex="1">
          <mxGeometry x="150" y="480" width="315" height="30" as="geometry" />
        </mxCell>
        <mxCell id="QAlAPhOlw3hryVekH8fl-266" value="" style="ellipse;whiteSpace=wrap;html=1;fillColor=#054FB9;strokeColor=#054FB9;rotation=-270;" parent="1" vertex="1">
          <mxGeometry x="530" y="345" width="10" height="10" as="geometry" />
        </mxCell>
        <mxCell id="QAlAPhOlw3hryVekH8fl-269" value="" style="endArrow=classic;html=1;rounded=0;exitX=0.5;exitY=1;exitDx=0;exitDy=0;strokeColor=#6F6F6F;" parent="1" source="QAlAPhOlw3hryVekH8fl-180" edge="1">
          <mxGeometry width="50" height="50" relative="1" as="geometry">
            <mxPoint x="240" y="510" as="sourcePoint" />
            <mxPoint x="250" y="480" as="targetPoint" />
            <Array as="points">
              <mxPoint x="85" y="450" />
              <mxPoint x="250" y="450" />
            </Array>
          </mxGeometry>
        </mxCell>
        <mxCell id="QAlAPhOlw3hryVekH8fl-270" value="" style="endArrow=classic;html=1;rounded=0;exitX=0.5;exitY=1;exitDx=0;exitDy=0;strokeColor=#6F6F6F;" parent="1" source="QAlAPhOlw3hryVekH8fl-182" edge="1">
          <mxGeometry width="50" height="50" relative="1" as="geometry">
            <mxPoint x="160" y="410" as="sourcePoint" />
            <mxPoint x="275" y="480" as="targetPoint" />
            <Array as="points">
              <mxPoint x="165" y="440" />
              <mxPoint x="275" y="440" />
            </Array>
          </mxGeometry>
        </mxCell>
        <mxCell id="QAlAPhOlw3hryVekH8fl-271" value="" style="endArrow=classic;html=1;rounded=0;exitX=0.5;exitY=1;exitDx=0;exitDy=0;entryX=0.493;entryY=0.008;entryDx=0;entryDy=0;strokeColor=#6F6F6F;entryPerimeter=0;" parent="1" source="QAlAPhOlw3hryVekH8fl-253" target="QAlAPhOlw3hryVekH8fl-265" edge="1">
          <mxGeometry width="50" height="50" relative="1" as="geometry">
            <mxPoint x="310" y="400" as="sourcePoint" />
            <mxPoint x="310" y="470" as="targetPoint" />
          </mxGeometry>
        </mxCell>
        <mxCell id="QAlAPhOlw3hryVekH8fl-272" value="" style="endArrow=classic;html=1;rounded=0;exitX=0.5;exitY=1;exitDx=0;exitDy=0;strokeColor=#6F6F6F;" parent="1" source="QAlAPhOlw3hryVekH8fl-225" edge="1">
          <mxGeometry width="50" height="50" relative="1" as="geometry">
            <mxPoint x="300" y="500" as="sourcePoint" />
            <mxPoint x="335" y="480" as="targetPoint" />
            <Array as="points">
              <mxPoint x="445" y="440" />
              <mxPoint x="335" y="440" />
            </Array>
          </mxGeometry>
        </mxCell>
        <mxCell id="QAlAPhOlw3hryVekH8fl-273" value="" style="endArrow=classic;html=1;rounded=0;exitX=0.5;exitY=1;exitDx=0;exitDy=0;strokeColor=#6F6F6F;" parent="1" source="QAlAPhOlw3hryVekH8fl-214" edge="1">
          <mxGeometry width="50" height="50" relative="1" as="geometry">
            <mxPoint x="300" y="500" as="sourcePoint" />
            <mxPoint x="360" y="480" as="targetPoint" />
            <Array as="points">
              <mxPoint x="525" y="450" />
              <mxPoint x="360" y="450" />
            </Array>
          </mxGeometry>
        </mxCell>
        <mxCell id="QAlAPhOlw3hryVekH8fl-274" value="" style="shape=flexArrow;endArrow=classic;html=1;rounded=0;" parent="1" edge="1">
          <mxGeometry width="50" height="50" relative="1" as="geometry">
            <mxPoint x="120" y="270" as="sourcePoint" />
            <mxPoint x="120" y="310" as="targetPoint" />
          </mxGeometry>
        </mxCell>
        <mxCell id="QAlAPhOlw3hryVekH8fl-275" value="" style="shape=flexArrow;endArrow=classic;html=1;rounded=0;" parent="1" edge="1">
          <mxGeometry width="50" height="50" relative="1" as="geometry">
            <mxPoint x="120" y="270" as="sourcePoint" />
            <mxPoint x="120" y="310" as="targetPoint" />
          </mxGeometry>
        </mxCell>
        <mxCell id="QAlAPhOlw3hryVekH8fl-276" value="" style="shape=flexArrow;endArrow=classic;html=1;rounded=0;" parent="1" edge="1">
          <mxGeometry width="50" height="50" relative="1" as="geometry">
            <mxPoint x="304.58" y="270" as="sourcePoint" />
            <mxPoint x="304.58" y="310" as="targetPoint" />
          </mxGeometry>
        </mxCell>
        <mxCell id="QAlAPhOlw3hryVekH8fl-277" value="" style="shape=flexArrow;endArrow=classic;html=1;rounded=0;" parent="1" edge="1">
          <mxGeometry width="50" height="50" relative="1" as="geometry">
            <mxPoint x="484.58000000000004" y="270" as="sourcePoint" />
            <mxPoint x="484.58000000000004" y="310" as="targetPoint" />
          </mxGeometry>
        </mxCell>
        <mxCell id="QAlAPhOlw3hryVekH8fl-278" value="Vertebrate 4" style="text;html=1;align=center;verticalAlign=middle;whiteSpace=wrap;rounded=0;" parent="1" vertex="1">
          <mxGeometry x="630" y="160" width="70" height="30" as="geometry" />
        </mxCell>
        <mxCell id="QAlAPhOlw3hryVekH8fl-279" value="" style="group;rotation=-180;" parent="1" vertex="1" connectable="0">
          <mxGeometry x="630" y="180" width="70" height="80" as="geometry" />
        </mxCell>
        <mxCell id="QAlAPhOlw3hryVekH8fl-280" value="" style="rounded=0;whiteSpace=wrap;html=1;dashed=1;dashPattern=12 12;fillColor=#f5f5f5;fontColor=#333333;strokeColor=#666666;rotation=-270;" parent="QAlAPhOlw3hryVekH8fl-279" vertex="1">
          <mxGeometry width="70" height="80" as="geometry" />
        </mxCell>
        <mxCell id="QAlAPhOlw3hryVekH8fl-284" value="" style="ellipse;whiteSpace=wrap;html=1;fillColor=#8BABF1;strokeColor=#8BABF1;rotation=-270;" parent="QAlAPhOlw3hryVekH8fl-279" vertex="1">
          <mxGeometry x="40" y="55" width="10" height="10" as="geometry" />
        </mxCell>
        <mxCell id="QAlAPhOlw3hryVekH8fl-285" value="" style="ellipse;whiteSpace=wrap;html=1;fillColor=#8BABF1;strokeColor=#8BABF1;rotation=-270;" parent="QAlAPhOlw3hryVekH8fl-279" vertex="1">
          <mxGeometry x="20" y="55" width="10" height="10" as="geometry" />
        </mxCell>
        <mxCell id="QAlAPhOlw3hryVekH8fl-82" value="" style="ellipse;whiteSpace=wrap;html=1;fillColor=#054FB9;strokeColor=#054FB9;" parent="1" vertex="1">
          <mxGeometry x="620" y="380" width="10" height="10" as="geometry" />
        </mxCell>
        <mxCell id="QAlAPhOlw3hryVekH8fl-83" value="&lt;div&gt;Nymph&lt;/div&gt;" style="text;html=1;align=left;verticalAlign=middle;whiteSpace=wrap;rounded=0;" parent="1" vertex="1">
          <mxGeometry x="650" y="370" width="60" height="30" as="geometry" />
        </mxCell>
        <mxCell id="QAlAPhOlw3hryVekH8fl-84" value="" style="ellipse;whiteSpace=wrap;html=1;fillColor=#8BABF1;strokeColor=#8BABF1;" parent="1" vertex="1">
          <mxGeometry x="620" y="400" width="10" height="10" as="geometry" />
        </mxCell>
        <mxCell id="QAlAPhOlw3hryVekH8fl-85" value="Larva" style="text;html=1;align=left;verticalAlign=middle;whiteSpace=wrap;rounded=0;" parent="1" vertex="1">
          <mxGeometry x="650" y="390" width="90" height="30" as="geometry" />
        </mxCell>
        <mxCell id="QAlAPhOlw3hryVekH8fl-94" value="" style="rounded=0;whiteSpace=wrap;html=1;dashed=1;dashPattern=12 12;fillColor=#f5f5f5;fontColor=#333333;strokeColor=#666666;" parent="1" vertex="1">
          <mxGeometry x="610" y="420" width="30" height="30" as="geometry" />
        </mxCell>
        <mxCell id="QAlAPhOlw3hryVekH8fl-95" value="Vertebrate" style="text;html=1;align=left;verticalAlign=middle;whiteSpace=wrap;rounded=0;" parent="1" vertex="1">
          <mxGeometry x="650" y="420" width="60" height="30" as="geometry" />
        </mxCell>
        <mxCell id="QAlAPhOlw3hryVekH8fl-168" value="" style="whiteSpace=wrap;html=1;aspect=fixed;dashed=1;fillColor=#f5f5f5;fontColor=#333333;strokeColor=#666666;fillStyle=solid;" parent="1" vertex="1">
          <mxGeometry x="610" y="465" width="30" height="30" as="geometry" />
        </mxCell>
        <mxCell id="QAlAPhOlw3hryVekH8fl-169" value="&lt;div&gt;Contact&lt;/div&gt;&lt;div&gt;network&lt;/div&gt;" style="text;html=1;align=left;verticalAlign=middle;whiteSpace=wrap;rounded=0;" parent="1" vertex="1">
          <mxGeometry x="650" y="465" width="80" height="30" as="geometry" />
        </mxCell>
      </root>
    </mxGraphModel>
  </diagram>
</mxfile>
